<mxfile host="65bd71144e">
    <diagram id="V3HVa-AttmL-mb9ELa5D" name="Page-1">
        <mxGraphModel dx="2222" dy="773" grid="1" gridSize="10" guides="1" tooltips="1" connect="1" arrows="1" fold="1" page="1" pageScale="1" pageWidth="850" pageHeight="1100" math="0" shadow="0">
            <root>
                <mxCell id="0"/>
                <mxCell id="1" parent="0"/>
                <mxCell id="2" value="" style="rounded=0;whiteSpace=wrap;html=1;" vertex="1" parent="1">
                    <mxGeometry x="40" y="200" width="120" height="400" as="geometry"/>
                </mxCell>
                <mxCell id="3" value="" style="rounded=0;whiteSpace=wrap;html=1;" vertex="1" parent="1">
                    <mxGeometry x="440" y="200" width="120" height="400" as="geometry"/>
                </mxCell>
                <mxCell id="4" value="" style="rounded=0;whiteSpace=wrap;html=1;" vertex="1" parent="1">
                    <mxGeometry x="640" y="200" width="120" height="400" as="geometry"/>
                </mxCell>
                <mxCell id="5" value="" style="rounded=0;whiteSpace=wrap;html=1;" vertex="1" parent="1">
                    <mxGeometry x="240" y="200" width="120" height="400" as="geometry"/>
                </mxCell>
                <mxCell id="8" style="html=1;exitX=0;exitY=0;exitDx=0;exitDy=0;strokeColor=default;endArrow=none;endFill=0;" edge="1" parent="1" source="6">
                    <mxGeometry relative="1" as="geometry">
                        <mxPoint y="60" as="targetPoint"/>
                    </mxGeometry>
                </mxCell>
                <mxCell id="6" value="" style="rounded=0;whiteSpace=wrap;html=1;" vertex="1" parent="1">
                    <mxGeometry y="80" width="800" height="60" as="geometry"/>
                </mxCell>
                <mxCell id="7" value="63" style="text;html=1;align=center;verticalAlign=middle;resizable=0;points=[];autosize=1;strokeColor=none;fillColor=none;" vertex="1" parent="1">
                    <mxGeometry x="-20" y="28" width="40" height="30" as="geometry"/>
                </mxCell>
                <mxCell id="9" value="0" style="text;html=1;align=center;verticalAlign=middle;resizable=0;points=[];autosize=1;strokeColor=none;fillColor=none;" vertex="1" parent="1">
                    <mxGeometry x="785" y="28" width="30" height="30" as="geometry"/>
                </mxCell>
                <mxCell id="10" style="html=1;exitX=1;exitY=-0.001;exitDx=0;exitDy=0;strokeColor=default;endArrow=none;endFill=0;exitPerimeter=0;" edge="1" parent="1" source="6">
                    <mxGeometry relative="1" as="geometry">
                        <mxPoint x="800" y="60" as="targetPoint"/>
                        <mxPoint x="800.1" y="80" as="sourcePoint"/>
                    </mxGeometry>
                </mxCell>
                <mxCell id="17" value="&lt;span style=&quot;color: rgb(0, 0, 0); font-size: 12px; background-color: rgb(251, 251, 251);&quot;&gt;Page Upper Directory&lt;/span&gt;" style="text;html=1;align=center;verticalAlign=middle;whiteSpace=wrap;rounded=0;fontFamily=Helvetica;fontSize=11;fontColor=default;labelBackgroundColor=default;fillColor=none;" vertex="1" parent="1">
                    <mxGeometry x="210" y="150" width="180" height="40" as="geometry"/>
                </mxCell>
                <mxCell id="18" value="&lt;span style=&quot;color: rgb(0, 0, 0); font-size: 12px; background-color: rgb(251, 251, 251);&quot;&gt;Page Middle Directory&lt;/span&gt;" style="text;html=1;align=center;verticalAlign=middle;whiteSpace=wrap;rounded=0;fontFamily=Helvetica;fontSize=11;fontColor=default;labelBackgroundColor=default;fillColor=none;" vertex="1" parent="1">
                    <mxGeometry x="410" y="150" width="180" height="40" as="geometry"/>
                </mxCell>
                <mxCell id="20" value="&lt;span style=&quot;color: rgb(0, 0, 0); font-size: 12px; background-color: rgb(251, 251, 251);&quot;&gt;Page Global Directory&amp;nbsp;&lt;/span&gt;&lt;span style=&quot;background-color: rgb(251, 251, 251); font-size: 12px;&quot;&gt;or&amp;nbsp;&lt;/span&gt;&lt;span style=&quot;background-color: rgb(251, 251, 251); font-size: 12px;&quot;&gt;PML4&lt;/span&gt;" style="text;html=1;align=center;verticalAlign=middle;whiteSpace=wrap;rounded=0;fontFamily=Helvetica;fontSize=11;fontColor=default;labelBackgroundColor=default;fillColor=none;" vertex="1" parent="1">
                    <mxGeometry x="20" y="150" width="180" height="40" as="geometry"/>
                </mxCell>
                <mxCell id="21" value="&lt;span style=&quot;color: rgb(0, 0, 0); font-size: 12px; background-color: rgb(251, 251, 251);&quot;&gt;Page Table&lt;/span&gt;" style="text;html=1;align=center;verticalAlign=middle;whiteSpace=wrap;rounded=0;fontFamily=Helvetica;fontSize=11;fontColor=default;labelBackgroundColor=default;fillColor=none;" vertex="1" parent="1">
                    <mxGeometry x="610" y="150" width="180" height="40" as="geometry"/>
                </mxCell>
                <mxCell id="161" style="html=1;exitX=1;exitY=-0.001;exitDx=0;exitDy=0;strokeColor=default;endArrow=none;endFill=0;exitPerimeter=0;" edge="1" parent="1">
                    <mxGeometry relative="1" as="geometry">
                        <mxPoint x="650" y="60" as="targetPoint"/>
                        <mxPoint x="650" y="80" as="sourcePoint"/>
                    </mxGeometry>
                </mxCell>
                <mxCell id="162" value="11" style="text;html=1;align=center;verticalAlign=middle;resizable=0;points=[];autosize=1;strokeColor=none;fillColor=none;fontFamily=Helvetica;fontSize=11;fontColor=default;labelBackgroundColor=default;" vertex="1" parent="1">
                    <mxGeometry x="635" y="28" width="30" height="30" as="geometry"/>
                </mxCell>
                <mxCell id="163" style="html=1;exitX=1;exitY=-0.001;exitDx=0;exitDy=0;strokeColor=default;endArrow=none;endFill=0;exitPerimeter=0;" edge="1" parent="1">
                    <mxGeometry relative="1" as="geometry">
                        <mxPoint x="540" y="60" as="targetPoint"/>
                        <mxPoint x="540" y="80" as="sourcePoint"/>
                    </mxGeometry>
                </mxCell>
                <mxCell id="164" value="20" style="text;html=1;align=center;verticalAlign=middle;resizable=0;points=[];autosize=1;strokeColor=none;fillColor=none;fontFamily=Helvetica;fontSize=11;fontColor=default;labelBackgroundColor=default;" vertex="1" parent="1">
                    <mxGeometry x="520" y="28" width="40" height="30" as="geometry"/>
                </mxCell>
                <mxCell id="165" style="html=1;exitX=1;exitY=-0.001;exitDx=0;exitDy=0;strokeColor=default;endArrow=none;endFill=0;exitPerimeter=0;" edge="1" parent="1">
                    <mxGeometry relative="1" as="geometry">
                        <mxPoint x="430" y="60" as="targetPoint"/>
                        <mxPoint x="430" y="80" as="sourcePoint"/>
                    </mxGeometry>
                </mxCell>
                <mxCell id="166" value="29" style="text;html=1;align=center;verticalAlign=middle;resizable=0;points=[];autosize=1;strokeColor=none;fillColor=none;fontFamily=Helvetica;fontSize=11;fontColor=default;labelBackgroundColor=default;" vertex="1" parent="1">
                    <mxGeometry x="410" y="28" width="40" height="30" as="geometry"/>
                </mxCell>
                <mxCell id="167" style="html=1;exitX=1;exitY=-0.001;exitDx=0;exitDy=0;strokeColor=default;endArrow=none;endFill=0;exitPerimeter=0;" edge="1" parent="1">
                    <mxGeometry relative="1" as="geometry">
                        <mxPoint x="320" y="60" as="targetPoint"/>
                        <mxPoint x="320" y="80" as="sourcePoint"/>
                    </mxGeometry>
                </mxCell>
                <mxCell id="168" value="38" style="text;html=1;align=center;verticalAlign=middle;resizable=0;points=[];autosize=1;strokeColor=none;fillColor=none;fontFamily=Helvetica;fontSize=11;fontColor=default;labelBackgroundColor=default;" vertex="1" parent="1">
                    <mxGeometry x="300" y="28" width="40" height="30" as="geometry"/>
                </mxCell>
                <mxCell id="169" style="html=1;strokeColor=default;endArrow=none;endFill=0;" edge="1" parent="1">
                    <mxGeometry relative="1" as="geometry">
                        <mxPoint x="210" y="60" as="targetPoint"/>
                        <mxPoint x="210" y="80" as="sourcePoint"/>
                    </mxGeometry>
                </mxCell>
                <mxCell id="170" value="47" style="text;html=1;align=center;verticalAlign=middle;resizable=0;points=[];autosize=1;strokeColor=none;fillColor=none;fontFamily=Helvetica;fontSize=11;fontColor=default;labelBackgroundColor=default;" vertex="1" parent="1">
                    <mxGeometry x="190" y="28" width="40" height="30" as="geometry"/>
                </mxCell>
                <mxCell id="171" style="html=1;strokeColor=default;endArrow=none;endFill=0;exitX=0.262;exitY=1.003;exitDx=0;exitDy=0;exitPerimeter=0;" edge="1" parent="1" source="6">
                    <mxGeometry relative="1" as="geometry">
                        <mxPoint x="210" y="80" as="targetPoint"/>
                        <mxPoint x="210" y="100" as="sourcePoint"/>
                    </mxGeometry>
                </mxCell>
                <mxCell id="172" style="html=1;strokeColor=default;endArrow=none;endFill=0;exitX=0.262;exitY=1.003;exitDx=0;exitDy=0;exitPerimeter=0;" edge="1" parent="1">
                    <mxGeometry relative="1" as="geometry">
                        <mxPoint x="319.76" y="80" as="targetPoint"/>
                        <mxPoint x="319.76" y="140" as="sourcePoint"/>
                    </mxGeometry>
                </mxCell>
                <mxCell id="173" style="html=1;strokeColor=default;endArrow=none;endFill=0;exitX=0.262;exitY=1.003;exitDx=0;exitDy=0;exitPerimeter=0;" edge="1" parent="1">
                    <mxGeometry relative="1" as="geometry">
                        <mxPoint x="429.76" y="80" as="targetPoint"/>
                        <mxPoint x="429.76" y="140" as="sourcePoint"/>
                    </mxGeometry>
                </mxCell>
                <mxCell id="174" style="html=1;strokeColor=default;endArrow=none;endFill=0;exitX=0.262;exitY=1.003;exitDx=0;exitDy=0;exitPerimeter=0;" edge="1" parent="1">
                    <mxGeometry relative="1" as="geometry">
                        <mxPoint x="539.9" y="80" as="targetPoint"/>
                        <mxPoint x="539.9" y="140" as="sourcePoint"/>
                    </mxGeometry>
                </mxCell>
                <mxCell id="176" style="html=1;strokeColor=default;endArrow=none;endFill=0;exitX=0.262;exitY=1.003;exitDx=0;exitDy=0;exitPerimeter=0;" edge="1" parent="1">
                    <mxGeometry relative="1" as="geometry">
                        <mxPoint x="649.9" y="80" as="targetPoint"/>
                        <mxPoint x="649.9" y="140" as="sourcePoint"/>
                    </mxGeometry>
                </mxCell>
                <mxCell id="178" value="Virtual Address" style="text;html=1;align=center;verticalAlign=middle;whiteSpace=wrap;rounded=0;fontFamily=Helvetica;fontSize=11;fontColor=default;labelBackgroundColor=default;" vertex="1" parent="1">
                    <mxGeometry x="-110" y="87.5" width="90" height="45" as="geometry"/>
                </mxCell>
                <mxCell id="180" value="Unused&lt;div&gt;16 bits&lt;/div&gt;" style="text;html=1;align=center;verticalAlign=middle;whiteSpace=wrap;rounded=0;fontFamily=Helvetica;fontSize=11;fontColor=default;labelBackgroundColor=default;" vertex="1" parent="1">
                    <mxGeometry x="55" y="87.5" width="90" height="45" as="geometry"/>
                </mxCell>
                <mxCell id="181" value="PML4 Offset&lt;div&gt;9 bits&lt;/div&gt;" style="text;html=1;align=center;verticalAlign=middle;whiteSpace=wrap;rounded=0;fontFamily=Helvetica;fontSize=11;fontColor=default;labelBackgroundColor=default;" vertex="1" parent="1">
                    <mxGeometry x="220" y="87.5" width="90" height="45" as="geometry"/>
                </mxCell>
                <mxCell id="182" value="PUD Offset&lt;div&gt;9 bits&lt;/div&gt;" style="text;html=1;align=center;verticalAlign=middle;whiteSpace=wrap;rounded=0;fontFamily=Helvetica;fontSize=11;fontColor=default;labelBackgroundColor=default;" vertex="1" parent="1">
                    <mxGeometry x="330" y="87.5" width="90" height="45" as="geometry"/>
                </mxCell>
                <mxCell id="183" value="PMD Offset&lt;div&gt;9 bits&lt;/div&gt;" style="text;html=1;align=center;verticalAlign=middle;whiteSpace=wrap;rounded=0;fontFamily=Helvetica;fontSize=11;fontColor=default;labelBackgroundColor=default;" vertex="1" parent="1">
                    <mxGeometry x="440" y="87.5" width="90" height="45" as="geometry"/>
                </mxCell>
                <mxCell id="184" value="PT Offset&lt;div&gt;9 bits&lt;/div&gt;" style="text;html=1;align=center;verticalAlign=middle;whiteSpace=wrap;rounded=0;fontFamily=Helvetica;fontSize=11;fontColor=default;labelBackgroundColor=default;" vertex="1" parent="1">
                    <mxGeometry x="550" y="87.5" width="90" height="45" as="geometry"/>
                </mxCell>
                <mxCell id="185" value="Page Offset&lt;div&gt;12 bits&lt;/div&gt;" style="text;html=1;align=center;verticalAlign=middle;whiteSpace=wrap;rounded=0;fontFamily=Helvetica;fontSize=11;fontColor=default;labelBackgroundColor=default;" vertex="1" parent="1">
                    <mxGeometry x="680" y="87.5" width="90" height="45" as="geometry"/>
                </mxCell>
                <mxCell id="186" value="" style="shape=curlyBracket;whiteSpace=wrap;html=1;rounded=1;flipH=1;labelPosition=right;verticalLabelPosition=middle;align=left;verticalAlign=middle;fontFamily=Helvetica;fontSize=11;fontColor=default;labelBackgroundColor=default;rotation=90;" vertex="1" parent="1">
                    <mxGeometry x="90" y="560" width="20" height="120" as="geometry"/>
                </mxCell>
                <mxCell id="187" value="512 Entries * 8 Bytes&amp;nbsp;&lt;div&gt;&lt;span style=&quot;background-color: light-dark(#ffffff, var(--ge-dark-color, #121212));&quot;&gt;4 KB table&lt;/span&gt;&lt;/div&gt;" style="text;html=1;align=center;verticalAlign=middle;resizable=0;points=[];autosize=1;strokeColor=none;fillColor=none;fontFamily=Helvetica;fontSize=11;fontColor=default;labelBackgroundColor=default;" vertex="1" parent="1">
                    <mxGeometry x="35" y="623" width="130" height="40" as="geometry"/>
                </mxCell>
                <mxCell id="188" value="" style="shape=curlyBracket;whiteSpace=wrap;html=1;rounded=1;flipH=1;labelPosition=right;verticalLabelPosition=middle;align=left;verticalAlign=middle;fontFamily=Helvetica;fontSize=11;fontColor=default;labelBackgroundColor=default;rotation=90;" vertex="1" parent="1">
                    <mxGeometry x="290" y="560" width="20" height="120" as="geometry"/>
                </mxCell>
                <mxCell id="189" value="&lt;span style=&quot;color: rgb(0, 0, 0);&quot;&gt;512 Entries * 8 Bytes&amp;nbsp;&lt;/span&gt;&lt;div&gt;&lt;span style=&quot;background-color: light-dark(#ffffff, var(--ge-dark-color, #121212));&quot;&gt;4 KB table&lt;/span&gt;&lt;/div&gt;" style="text;html=1;align=center;verticalAlign=middle;resizable=0;points=[];autosize=1;strokeColor=none;fillColor=none;fontFamily=Helvetica;fontSize=11;fontColor=default;labelBackgroundColor=default;" vertex="1" parent="1">
                    <mxGeometry x="235" y="623" width="130" height="40" as="geometry"/>
                </mxCell>
                <mxCell id="190" value="" style="shape=curlyBracket;whiteSpace=wrap;html=1;rounded=1;flipH=1;labelPosition=right;verticalLabelPosition=middle;align=left;verticalAlign=middle;fontFamily=Helvetica;fontSize=11;fontColor=default;labelBackgroundColor=default;rotation=90;" vertex="1" parent="1">
                    <mxGeometry x="490" y="560" width="20" height="120" as="geometry"/>
                </mxCell>
                <mxCell id="191" value="&lt;span style=&quot;color: rgb(0, 0, 0);&quot;&gt;512 Entries * 8 Bytes&amp;nbsp;&lt;/span&gt;&lt;div&gt;&lt;span style=&quot;background-color: light-dark(#ffffff, var(--ge-dark-color, #121212));&quot;&gt;4 KB table&lt;/span&gt;&lt;/div&gt;" style="text;html=1;align=center;verticalAlign=middle;resizable=0;points=[];autosize=1;strokeColor=none;fillColor=none;fontFamily=Helvetica;fontSize=11;fontColor=default;labelBackgroundColor=default;" vertex="1" parent="1">
                    <mxGeometry x="435" y="623" width="130" height="40" as="geometry"/>
                </mxCell>
                <mxCell id="192" value="" style="shape=curlyBracket;whiteSpace=wrap;html=1;rounded=1;flipH=1;labelPosition=right;verticalLabelPosition=middle;align=left;verticalAlign=middle;fontFamily=Helvetica;fontSize=11;fontColor=default;labelBackgroundColor=default;rotation=90;" vertex="1" parent="1">
                    <mxGeometry x="690" y="560" width="20" height="120" as="geometry"/>
                </mxCell>
                <mxCell id="193" value="&lt;span style=&quot;color: rgb(0, 0, 0);&quot;&gt;512 Entries * 8 Bytes&amp;nbsp;&lt;/span&gt;&lt;div&gt;&lt;span style=&quot;background-color: light-dark(#ffffff, var(--ge-dark-color, #121212));&quot;&gt;4 KB table&lt;/span&gt;&lt;/div&gt;" style="text;html=1;align=center;verticalAlign=middle;resizable=0;points=[];autosize=1;strokeColor=none;fillColor=none;fontFamily=Helvetica;fontSize=11;fontColor=default;labelBackgroundColor=default;" vertex="1" parent="1">
                    <mxGeometry x="635" y="623" width="130" height="40" as="geometry"/>
                </mxCell>
                <mxCell id="197" style="edgeStyle=none;shape=connector;rounded=1;html=1;exitX=1;exitY=0.5;exitDx=0;exitDy=0;entryX=0;entryY=1;entryDx=0;entryDy=0;strokeColor=default;align=center;verticalAlign=middle;fontFamily=Helvetica;fontSize=11;fontColor=default;labelBackgroundColor=default;endArrow=classic;endFill=1;" edge="1" parent="1" source="194" target="2">
                    <mxGeometry relative="1" as="geometry"/>
                </mxCell>
                <mxCell id="194" value="CR3 Register" style="rounded=0;whiteSpace=wrap;html=1;fontFamily=Helvetica;fontSize=11;fontColor=default;labelBackgroundColor=default;" vertex="1" parent="1">
                    <mxGeometry x="-120" y="580" width="80" height="40" as="geometry"/>
                </mxCell>
                <mxCell id="202" style="edgeStyle=orthogonalEdgeStyle;shape=connector;rounded=0;html=1;exitX=1;exitY=0.5;exitDx=0;exitDy=0;entryX=0;entryY=1;entryDx=0;entryDy=0;strokeColor=default;align=center;verticalAlign=middle;fontFamily=Helvetica;fontSize=11;fontColor=default;labelBackgroundColor=default;endArrow=classic;endFill=1;curved=0;" edge="1" parent="1" source="198" target="5">
                    <mxGeometry relative="1" as="geometry">
                        <Array as="points">
                            <mxPoint x="180" y="310"/>
                            <mxPoint x="180" y="600"/>
                        </Array>
                    </mxGeometry>
                </mxCell>
                <mxCell id="198" value="512 GB" style="rounded=0;whiteSpace=wrap;html=1;fontFamily=Helvetica;fontSize=11;fontColor=default;labelBackgroundColor=default;" vertex="1" parent="1">
                    <mxGeometry x="40" y="300" width="120" height="20" as="geometry"/>
                </mxCell>
                <mxCell id="199" value="1 GB" style="rounded=0;whiteSpace=wrap;html=1;fontFamily=Helvetica;fontSize=11;fontColor=default;labelBackgroundColor=default;" vertex="1" parent="1">
                    <mxGeometry x="240" y="490" width="120" height="20" as="geometry"/>
                </mxCell>
                <mxCell id="200" value="2048 KB" style="rounded=0;whiteSpace=wrap;html=1;fontFamily=Helvetica;fontSize=11;fontColor=default;labelBackgroundColor=default;" vertex="1" parent="1">
                    <mxGeometry x="440" y="380" width="120" height="20" as="geometry"/>
                </mxCell>
                <mxCell id="235" style="edgeStyle=orthogonalEdgeStyle;rounded=0;html=1;exitX=1;exitY=1;exitDx=0;exitDy=0;entryX=0;entryY=1;entryDx=0;entryDy=0;strokeColor=default;align=center;verticalAlign=middle;fontFamily=Helvetica;fontSize=11;fontColor=default;labelBackgroundColor=default;endArrow=classic;endFill=1;" edge="1" parent="1" source="201" target="223">
                    <mxGeometry relative="1" as="geometry">
                        <Array as="points">
                            <mxPoint x="780" y="270"/>
                            <mxPoint x="780" y="340"/>
                        </Array>
                    </mxGeometry>
                </mxCell>
                <mxCell id="201" value="4 KB" style="rounded=0;whiteSpace=wrap;html=1;fontFamily=Helvetica;fontSize=11;fontColor=default;labelBackgroundColor=default;" vertex="1" parent="1">
                    <mxGeometry x="640" y="250" width="120" height="20" as="geometry"/>
                </mxCell>
                <mxCell id="205" style="edgeStyle=orthogonalEdgeStyle;shape=connector;rounded=0;html=1;entryX=0;entryY=0.5;entryDx=0;entryDy=0;strokeColor=default;align=center;verticalAlign=middle;fontFamily=Helvetica;fontSize=11;fontColor=default;labelBackgroundColor=default;endArrow=classic;endFill=1;curved=0;" edge="1" parent="1" target="198">
                    <mxGeometry relative="1" as="geometry">
                        <mxPoint x="260" y="140" as="sourcePoint"/>
                        <mxPoint x="-40" y="489.97" as="targetPoint"/>
                        <Array as="points">
                            <mxPoint x="260" y="150"/>
                            <mxPoint x="20" y="150"/>
                            <mxPoint x="20" y="310"/>
                        </Array>
                    </mxGeometry>
                </mxCell>
                <mxCell id="206" style="edgeStyle=orthogonalEdgeStyle;shape=connector;rounded=0;html=1;exitX=1;exitY=0.5;exitDx=0;exitDy=0;entryX=0;entryY=1;entryDx=0;entryDy=0;strokeColor=default;align=center;verticalAlign=middle;fontFamily=Helvetica;fontSize=11;fontColor=default;labelBackgroundColor=default;endArrow=classic;endFill=1;curved=0;" edge="1" parent="1" source="199">
                    <mxGeometry relative="1" as="geometry">
                        <mxPoint x="360" y="309.97" as="sourcePoint"/>
                        <mxPoint x="440" y="599.97" as="targetPoint"/>
                        <Array as="points">
                            <mxPoint x="380" y="500"/>
                            <mxPoint x="380" y="600"/>
                        </Array>
                    </mxGeometry>
                </mxCell>
                <mxCell id="207" style="edgeStyle=orthogonalEdgeStyle;shape=connector;rounded=0;html=1;entryX=0;entryY=0.5;entryDx=0;entryDy=0;strokeColor=default;align=center;verticalAlign=middle;fontFamily=Helvetica;fontSize=11;fontColor=default;labelBackgroundColor=default;endArrow=classic;endFill=1;curved=0;exitX=0.467;exitY=1.005;exitDx=0;exitDy=0;exitPerimeter=0;" edge="1" parent="1" source="6" target="199">
                    <mxGeometry relative="1" as="geometry">
                        <mxPoint x="350" y="140" as="sourcePoint"/>
                        <mxPoint x="465" y="500.06" as="targetPoint"/>
                        <Array as="points">
                            <mxPoint x="374" y="160"/>
                            <mxPoint x="220" y="160"/>
                            <mxPoint x="220" y="500"/>
                        </Array>
                    </mxGeometry>
                </mxCell>
                <mxCell id="208" style="edgeStyle=orthogonalEdgeStyle;shape=connector;rounded=0;html=1;entryX=0;entryY=0.5;entryDx=0;entryDy=0;strokeColor=default;align=center;verticalAlign=middle;fontFamily=Helvetica;fontSize=11;fontColor=default;labelBackgroundColor=default;endArrow=classic;endFill=1;curved=0;exitX=0.6;exitY=1.001;exitDx=0;exitDy=0;exitPerimeter=0;" edge="1" parent="1" source="6" target="200">
                    <mxGeometry relative="1" as="geometry">
                        <mxPoint x="475" y="149.97" as="sourcePoint"/>
                        <mxPoint x="345" y="509.97" as="targetPoint"/>
                        <Array as="points">
                            <mxPoint x="480" y="150"/>
                            <mxPoint x="420" y="150"/>
                            <mxPoint x="420" y="390"/>
                        </Array>
                    </mxGeometry>
                </mxCell>
                <mxCell id="209" style="edgeStyle=orthogonalEdgeStyle;shape=connector;rounded=0;html=1;exitX=1;exitY=0.5;exitDx=0;exitDy=0;entryX=0;entryY=1;entryDx=0;entryDy=0;strokeColor=default;align=center;verticalAlign=middle;fontFamily=Helvetica;fontSize=11;fontColor=default;labelBackgroundColor=default;endArrow=classic;endFill=1;curved=0;" edge="1" parent="1" source="200">
                    <mxGeometry relative="1" as="geometry">
                        <mxPoint x="560" y="500" as="sourcePoint"/>
                        <mxPoint x="640" y="599.97" as="targetPoint"/>
                        <Array as="points">
                            <mxPoint x="580" y="390"/>
                            <mxPoint x="580" y="600"/>
                        </Array>
                    </mxGeometry>
                </mxCell>
                <mxCell id="211" style="edgeStyle=orthogonalEdgeStyle;shape=connector;rounded=0;html=1;entryX=0;entryY=0.5;entryDx=0;entryDy=0;strokeColor=default;align=center;verticalAlign=middle;fontFamily=Helvetica;fontSize=11;fontColor=default;labelBackgroundColor=default;endArrow=classic;endFill=1;curved=0;exitX=0.75;exitY=1;exitDx=0;exitDy=0;" edge="1" parent="1" source="6" target="201">
                    <mxGeometry relative="1" as="geometry">
                        <mxPoint x="640" y="140" as="sourcePoint"/>
                        <mxPoint x="600" y="390" as="targetPoint"/>
                        <Array as="points">
                            <mxPoint x="600" y="150"/>
                            <mxPoint x="620" y="150"/>
                            <mxPoint x="620" y="260"/>
                        </Array>
                    </mxGeometry>
                </mxCell>
                <mxCell id="212" value="" style="rounded=0;whiteSpace=wrap;html=1;" vertex="1" parent="1">
                    <mxGeometry x="840" y="200" width="120" height="400" as="geometry"/>
                </mxCell>
                <mxCell id="223" value="" style="rounded=0;whiteSpace=wrap;html=1;fontFamily=Helvetica;fontSize=11;fontColor=default;labelBackgroundColor=default;" vertex="1" parent="1">
                    <mxGeometry x="840" y="210" width="120" height="130" as="geometry"/>
                </mxCell>
                <mxCell id="232" style="edgeStyle=orthogonalEdgeStyle;shape=connector;rounded=0;html=1;strokeColor=default;align=center;verticalAlign=middle;fontFamily=Helvetica;fontSize=11;fontColor=default;labelBackgroundColor=default;endArrow=classic;endFill=1;curved=0;exitX=0.467;exitY=1.005;exitDx=0;exitDy=0;exitPerimeter=0;" edge="1" parent="1">
                    <mxGeometry relative="1" as="geometry">
                        <mxPoint x="719" y="140" as="sourcePoint"/>
                        <mxPoint x="840" y="230" as="targetPoint"/>
                        <Array as="points">
                            <mxPoint x="719" y="150"/>
                            <mxPoint x="820" y="150"/>
                            <mxPoint x="820" y="230"/>
                        </Array>
                    </mxGeometry>
                </mxCell>
                <mxCell id="233" value="" style="shape=curlyBracket;whiteSpace=wrap;html=1;rounded=1;flipH=1;labelPosition=right;verticalLabelPosition=middle;align=left;verticalAlign=middle;fontFamily=Helvetica;fontSize=11;fontColor=default;labelBackgroundColor=default;size=0.5;" vertex="1" parent="1">
                    <mxGeometry x="970" y="210" width="20" height="130" as="geometry"/>
                </mxCell>
                <mxCell id="234" value="4 KB Page" style="text;html=1;align=center;verticalAlign=middle;resizable=0;points=[];autosize=1;strokeColor=none;fillColor=none;fontFamily=Helvetica;fontSize=11;fontColor=default;labelBackgroundColor=default;" vertex="1" parent="1">
                    <mxGeometry x="980" y="260" width="80" height="30" as="geometry"/>
                </mxCell>
                <mxCell id="237" value="&lt;span style=&quot;color: rgb(0, 0, 0); font-size: 12px; background-color: rgb(251, 251, 251);&quot;&gt;RAM&lt;/span&gt;" style="text;html=1;align=center;verticalAlign=middle;whiteSpace=wrap;rounded=0;fontFamily=Helvetica;fontSize=11;fontColor=default;labelBackgroundColor=default;fillColor=none;" vertex="1" parent="1">
                    <mxGeometry x="810" y="150" width="180" height="40" as="geometry"/>
                </mxCell>
            </root>
        </mxGraphModel>
    </diagram>
</mxfile>